<?xml version="1.0" encoding="UTF-8"?>
<svg width="25px" height="19px" viewBox="0 0 25 19" version="1.1" xmlns="http://www.w3.org/2000/svg" xmlns:xlink="http://www.w3.org/1999/xlink">
    <!-- Generator: Sketch 45.2 (43514) - http://www.bohemiancoding.com/sketch -->
    <title>github</title>
    <desc>Created with Sketch.</desc>
    <defs></defs>
    <g id="Page-1" stroke="none" stroke-width="1" fill="none" fill-rule="evenodd">
        <g id="if_twitter_317720" fill-rule="nonzero" fill="#000000">
            <g id="github">
                <path d="M18.1578947,0.0877192982 C18.4649123,0.833333333 18.6842105,2.01754386 18.377193,2.89473684 C19.6491228,3.99122807 20.0877193,6.57894737 19.4736842,8.72807018 C21.2719298,8.85964912 23.4210526,8.64035088 24.7807018,9.21052632 C23.5087719,9.03508772 21.7105263,8.72807018 20.0438596,8.81578947 C19.7368421,8.81578947 19.254386,8.81578947 19.2982456,9.25438596 C21.2280702,9.38596491 23.1578947,9.56140351 24.7368421,10.0438596 C23.1578947,9.78070175 21.2719298,9.38596491 19.2982456,9.34210526 C18.5087719,10.9210526 16.8859649,11.7105263 14.6052632,11.8859649 C14.8245614,12.4122807 15.3070175,12.6315789 15.4385965,13.4649123 C15.6140351,14.7368421 15.1754386,16.5789474 15.6140351,17.4122807 C15.8333333,17.8070175 16.1403509,17.8070175 16.3596491,18.1578947 C15.7894737,18.8157895 14.4298246,18.0701754 14.2982456,17.4122807 C14.0350877,16.2280702 14.6929825,14.4298246 13.9912281,13.6403509 C14.0350877,14.9122807 13.6842105,16.7105263 14.0350877,17.8508772 C14.1666667,18.2894737 14.5614035,18.4649123 14.4736842,18.8596491 C11.9298246,19.122807 12.9824561,15.5701754 12.5877193,13.4649123 C12.1929825,13.5087719 12.3684211,14.0350877 12.3684211,14.254386 C12.3684211,16.3157895 12.8070175,19.122807 10.5701754,18.8596491 C10.5263158,18.4210526 10.877193,18.2894737 11.0087719,17.8947368 C11.4035088,16.754386 10.9210526,15 11.1403509,13.6403509 C10.3070175,14.2982456 11.2280702,16.4912281 10.7017544,17.6315789 C10.3947368,18.2894737 9.42982456,18.5526316 8.68421053,18.2894737 C8.77192982,17.8070175 9.29824561,17.8947368 9.51754386,17.4122807 C9.8245614,16.7982456 9.51754386,15.877193 9.60526316,14.9122807 C8.02631579,15.2192982 6.84210526,14.8684211 6.22807018,13.9035088 C5.96491228,13.4649123 5.87719298,12.9385965 5.57017544,12.5438596 C5.26315789,12.1491228 4.73684211,12.1052632 4.60526316,11.5789474 C6.53508772,11.0964912 6.62280702,13.5526316 8.33333333,13.6403509 C8.85964912,13.6403509 9.12280702,13.4649123 9.64912281,13.377193 C9.78070175,12.7631579 10.0877193,12.2807018 10.5263158,11.9736842 C8.37719298,11.6666667 6.57894737,11.0087719 5.74561404,9.38596491 C3.77192982,9.47368421 1.97368421,9.73684211 0.307017544,10.1315789 C1.84210526,9.56140351 3.68421053,9.38596491 5.70175439,9.34210526 C5.57017544,8.64035088 4.56140351,8.81578947 3.90350877,8.85964912 C2.71929825,8.90350877 1.22807018,9.07894737 0.263157895,9.25438596 C1.62280702,8.77192982 3.55263158,8.81578947 5.43859649,8.81578947 C4.86842105,7.01754386 5.0877193,4.21052632 6.31578947,3.15789474 C5.96491228,2.28070175 6.05263158,0.833333333 6.53508772,0.131578947 C7.93859649,0.175438596 8.77192982,0.789473684 9.64912281,1.35964912 C10.745614,1.05263158 11.8859649,0.921052632 13.3333333,0.964912281 C13.9473684,1.00877193 14.6052632,1.27192982 15.0877193,1.22807018 C15.5263158,1.18421053 16.0526316,0.657894737 16.4912281,0.48245614 C16.9736842,0.219298246 17.4561404,0.131578947 18.1578947,0.0877192982 Z" id="Github"></path>
            </g>
        </g>
    </g>
</svg>