<?xml version="1.0" encoding="UTF-8"?>
<svg width="25px" height="22px" viewBox="0 0 25 22" version="1.1" xmlns="http://www.w3.org/2000/svg" xmlns:xlink="http://www.w3.org/1999/xlink">
    <!-- Generator: Sketch 45.2 (43514) - http://www.bohemiancoding.com/sketch -->
    <title>medium</title>
    <desc>Created with Sketch.</desc>
    <defs></defs>
    <g id="Page-1" stroke="none" stroke-width="1" fill="none" fill-rule="evenodd">
        <g id="if_twitter_317720" transform="translate(-94.000000, -12.000000)" fill-rule="nonzero" fill="#000000">
            <g id="medium" transform="translate(94.000000, 12.000000)">
                <path d="M8.32868304,3.94810268 L8.32868304,20.3125 C8.32868304,20.5450149 8.27055432,20.7426525 8.15429688,20.9054129 C8.03803943,21.0681734 7.86830357,21.1495536 7.64508929,21.1495536 C7.48697917,21.1495536 7.33351935,21.1123512 7.18470982,21.0379464 L0.697544643,17.7873884 C0.502232143,17.6943824 0.337146577,17.5385975 0.202287946,17.3200335 C0.0674293155,17.1014695 0,16.8852307 0,16.671317 L0,0.767299107 C0,0.581287202 0.0465029762,0.423177083 0.139508929,0.29296875 C0.232514881,0.162760417 0.367373512,0.09765625 0.544084821,0.09765625 C0.674293155,0.09765625 0.87890625,0.167410714 1.15792411,0.306919643 L8.28683036,3.87834821 C8.31473214,3.90625 8.32868304,3.92950149 8.32868304,3.94810268 Z M9.22154018,5.35714286 L16.671317,17.4386161 L9.22154018,13.7276786 L9.22154018,5.35714286 Z M25,5.60825893 L25,20.3125 C25,20.5450149 24.9348958,20.7333519 24.8046875,20.8775112 C24.6744792,21.0216704 24.4977679,21.09375 24.2745536,21.09375 C24.0513393,21.09375 23.8327753,21.0332961 23.6188616,20.9123884 L17.4665179,17.843192 L25,5.60825893 Z M24.9581473,3.93415179 C24.9581473,3.96205357 23.765346,5.91285342 21.3797433,9.78655134 C18.9941406,13.6602493 17.5967262,15.9272693 17.1875,16.5876116 L11.7466518,7.74274554 L16.2667411,0.390625 C16.4248512,0.130208333 16.6666667,0 16.9921875,0 C17.1223958,0 17.2433036,0.0279017857 17.3549107,0.0837053571 L24.9023438,3.85044643 C24.9395461,3.86904762 24.9581473,3.8969494 24.9581473,3.93415179 Z" id="Shape"></path>
            </g>
        </g>
    </g>
</svg>