<?xml version="1.0" encoding="UTF-8"?>
<svg width="2px" height="2px" viewBox="0 0 2 2" version="1.1" xmlns="http://www.w3.org/2000/svg" xmlns:xlink="http://www.w3.org/1999/xlink">
    <!-- Generator: Sketch 45.2 (43514) - http://www.bohemiancoding.com/sketch -->
    <title>twitter</title>
    <desc>Created with Sketch.</desc>
    <defs></defs>
    <g id="Page-1" stroke="none" stroke-width="1" fill="none" fill-rule="evenodd">
        <g id="if_twitter_317720" fill-rule="nonzero" fill="#000000">
            <g id="twitter">
                <path d="M2.001,0.517088851 C1.9274191,0.549784525 1.84839935,0.571852542 1.76531608,0.581667496 C1.85002476,0.530904805 1.91510353,0.450509706 1.9457987,0.354735763 C1.86646637,0.401685 1.77869442,0.435943565 1.68523356,0.454260644 C1.61033983,0.374553217 1.50368817,0.324728261 1.38559615,0.324728261 C1.15897699,0.324728261 0.975368592,0.508399179 0.975368592,0.735018333 C0.975368592,0.767151367 0.978931983,0.798534212 0.985933733,0.828541714 C0.644910978,0.811412432 0.342585396,0.648059094 0.14015979,0.399809531 C0.104900975,0.460449691 0.0846459115,0.530904805 0.0846459115,0.606111107 C0.0846459115,0.748521709 0.157101525,0.874053092 0.267129032,0.947696503 C0.199924731,0.945508456 0.136658915,0.927128861 0.0813325831,0.896371172 C0.0812700675,0.898059094 0.0812700675,0.899872047 0.0812700675,0.901497453 C0.0812700675,1.10035967 0.22268042,1.26621363 0.410414854,1.30391056 C0.376031258,1.31322539 0.339772193,1.31828915 0.302325331,1.31828915 C0.275818705,1.31828915 0.250187297,1.31572601 0.225181045,1.31097482 C0.27731908,1.47389055 0.42891948,1.59254522 0.60840185,1.59592106 C0.468054264,1.70594857 0.291135034,1.77165249 0.0988994749,1.77165249 C0.0657661915,1.77165249 0.0330705176,1.76971451 0.001,1.76590105 C0.182545386,1.88218012 0.398224306,1.95013461 0.629969742,1.95013461 C1.38465841,1.95013461 1.79744911,1.32491581 1.79744911,0.782655243 C1.79744911,0.764900804 1.79694899,0.747146365 1.7961988,0.729516958 C1.87640635,0.671690001 1.94592373,0.59948445 2.001,0.517088851 Z" id="Shape"></path>
            </g>
        </g>
    </g>
</svg>